<mxfile host="app.diagrams.net" modified="2024-05-10T17:32:30.284Z" agent="Mozilla/5.0 (Macintosh; Intel Mac OS X 10_15_7) AppleWebKit/605.1.15 (KHTML, like Gecko) Version/17.4.1 Safari/605.1.15" etag="23tOYGqMj26Sf-7BpX64" version="24.3.1" type="device">
  <diagram name="Page-1" id="fozd880B7IRvszIvP1ci">
    <mxGraphModel dx="887" dy="720" grid="1" gridSize="10" guides="1" tooltips="1" connect="1" arrows="1" fold="1" page="1" pageScale="1" pageWidth="827" pageHeight="1169" math="0" shadow="0">
      <root>
        <mxCell id="0" />
        <mxCell id="1" parent="0" />
        <mxCell id="mPwbwdcTfQN4pYjI0akt-196" value="4.2" style="rounded=0;whiteSpace=wrap;html=1;" vertex="1" parent="1">
          <mxGeometry x="50" y="120" width="40" height="40" as="geometry" />
        </mxCell>
        <mxCell id="mPwbwdcTfQN4pYjI0akt-197" value="3.1" style="rounded=0;whiteSpace=wrap;html=1;" vertex="1" parent="1">
          <mxGeometry x="90" y="120" width="40" height="40" as="geometry" />
        </mxCell>
        <mxCell id="mPwbwdcTfQN4pYjI0akt-198" value="5.6" style="rounded=0;whiteSpace=wrap;html=1;" vertex="1" parent="1">
          <mxGeometry x="130" y="120" width="40" height="40" as="geometry" />
        </mxCell>
        <mxCell id="mPwbwdcTfQN4pYjI0akt-199" value="14.3" style="rounded=0;whiteSpace=wrap;html=1;" vertex="1" parent="1">
          <mxGeometry x="170" y="120" width="40" height="40" as="geometry" />
        </mxCell>
        <mxCell id="mPwbwdcTfQN4pYjI0akt-200" value="5.3" style="rounded=0;whiteSpace=wrap;html=1;" vertex="1" parent="1">
          <mxGeometry x="210" y="120" width="40" height="40" as="geometry" />
        </mxCell>
        <mxCell id="mPwbwdcTfQN4pYjI0akt-201" value="2.8" style="rounded=0;whiteSpace=wrap;html=1;" vertex="1" parent="1">
          <mxGeometry x="250" y="120" width="40" height="40" as="geometry" />
        </mxCell>
        <mxCell id="mPwbwdcTfQN4pYjI0akt-202" value="6.1" style="rounded=0;whiteSpace=wrap;html=1;" vertex="1" parent="1">
          <mxGeometry x="290" y="120" width="40" height="40" as="geometry" />
        </mxCell>
        <mxCell id="mPwbwdcTfQN4pYjI0akt-203" value="Step 1" style="text;html=1;align=center;verticalAlign=middle;whiteSpace=wrap;rounded=0;fontSize=10;" vertex="1" parent="1">
          <mxGeometry x="50" y="160" width="40" height="20" as="geometry" />
        </mxCell>
        <mxCell id="mPwbwdcTfQN4pYjI0akt-204" value="Step 2" style="text;html=1;align=center;verticalAlign=middle;whiteSpace=wrap;rounded=0;fontSize=10;" vertex="1" parent="1">
          <mxGeometry x="90" y="160" width="40" height="20" as="geometry" />
        </mxCell>
        <mxCell id="mPwbwdcTfQN4pYjI0akt-205" value="Step 3" style="text;html=1;align=center;verticalAlign=middle;whiteSpace=wrap;rounded=0;fontSize=10;" vertex="1" parent="1">
          <mxGeometry x="130" y="160" width="40" height="20" as="geometry" />
        </mxCell>
        <mxCell id="mPwbwdcTfQN4pYjI0akt-206" value="Step 4" style="text;html=1;align=center;verticalAlign=middle;whiteSpace=wrap;rounded=0;fontSize=10;" vertex="1" parent="1">
          <mxGeometry x="170" y="160" width="40" height="20" as="geometry" />
        </mxCell>
        <mxCell id="mPwbwdcTfQN4pYjI0akt-207" value="Step 1" style="text;html=1;align=center;verticalAlign=middle;whiteSpace=wrap;rounded=0;fontSize=10;" vertex="1" parent="1">
          <mxGeometry x="210" y="160" width="40" height="20" as="geometry" />
        </mxCell>
        <mxCell id="mPwbwdcTfQN4pYjI0akt-208" value="Step 2" style="text;html=1;align=center;verticalAlign=middle;whiteSpace=wrap;rounded=0;fontSize=10;" vertex="1" parent="1">
          <mxGeometry x="250" y="160" width="40" height="20" as="geometry" />
        </mxCell>
        <mxCell id="mPwbwdcTfQN4pYjI0akt-209" value="Step 3" style="text;html=1;align=center;verticalAlign=middle;whiteSpace=wrap;rounded=0;fontSize=10;" vertex="1" parent="1">
          <mxGeometry x="290" y="160" width="40" height="20" as="geometry" />
        </mxCell>
        <mxCell id="mPwbwdcTfQN4pYjI0akt-210" value="15.2" style="rounded=0;whiteSpace=wrap;html=1;" vertex="1" parent="1">
          <mxGeometry x="330" y="120" width="40" height="40" as="geometry" />
        </mxCell>
        <mxCell id="mPwbwdcTfQN4pYjI0akt-211" value="Step 4" style="text;html=1;align=center;verticalAlign=middle;whiteSpace=wrap;rounded=0;fontSize=10;" vertex="1" parent="1">
          <mxGeometry x="330" y="160" width="40" height="20" as="geometry" />
        </mxCell>
        <mxCell id="mPwbwdcTfQN4pYjI0akt-212" value="-" style="rounded=0;whiteSpace=wrap;html=1;" vertex="1" parent="1">
          <mxGeometry x="570" y="60" width="40" height="40" as="geometry" />
        </mxCell>
        <mxCell id="mPwbwdcTfQN4pYjI0akt-213" value="Step 1" style="text;html=1;align=center;verticalAlign=middle;whiteSpace=wrap;rounded=0;fontSize=10;" vertex="1" parent="1">
          <mxGeometry x="450" y="220" width="40" height="20" as="geometry" />
        </mxCell>
        <mxCell id="mPwbwdcTfQN4pYjI0akt-214" value="Step 2" style="text;html=1;align=center;verticalAlign=middle;whiteSpace=wrap;rounded=0;fontSize=10;" vertex="1" parent="1">
          <mxGeometry x="490" y="220" width="40" height="20" as="geometry" />
        </mxCell>
        <mxCell id="mPwbwdcTfQN4pYjI0akt-215" value="Step 3" style="text;html=1;align=center;verticalAlign=middle;whiteSpace=wrap;rounded=0;fontSize=10;" vertex="1" parent="1">
          <mxGeometry x="530" y="220" width="40" height="20" as="geometry" />
        </mxCell>
        <mxCell id="mPwbwdcTfQN4pYjI0akt-216" value="Step 4" style="text;html=1;align=center;verticalAlign=middle;whiteSpace=wrap;rounded=0;fontSize=10;" vertex="1" parent="1">
          <mxGeometry x="570" y="220" width="40" height="20" as="geometry" />
        </mxCell>
        <mxCell id="mPwbwdcTfQN4pYjI0akt-217" value="Step 1" style="text;html=1;align=center;verticalAlign=middle;whiteSpace=wrap;rounded=0;fontSize=10;" vertex="1" parent="1">
          <mxGeometry x="610" y="220" width="40" height="20" as="geometry" />
        </mxCell>
        <mxCell id="mPwbwdcTfQN4pYjI0akt-218" value="Step 2" style="text;html=1;align=center;verticalAlign=middle;whiteSpace=wrap;rounded=0;fontSize=10;" vertex="1" parent="1">
          <mxGeometry x="650" y="220" width="40" height="20" as="geometry" />
        </mxCell>
        <mxCell id="mPwbwdcTfQN4pYjI0akt-219" value="Step 3" style="text;html=1;align=center;verticalAlign=middle;whiteSpace=wrap;rounded=0;fontSize=10;" vertex="1" parent="1">
          <mxGeometry x="690" y="220" width="40" height="20" as="geometry" />
        </mxCell>
        <mxCell id="mPwbwdcTfQN4pYjI0akt-220" value="7.1" style="rounded=0;whiteSpace=wrap;html=1;" vertex="1" parent="1">
          <mxGeometry x="730" y="60" width="40" height="40" as="geometry" />
        </mxCell>
        <mxCell id="mPwbwdcTfQN4pYjI0akt-221" value="Step 4" style="text;html=1;align=center;verticalAlign=middle;whiteSpace=wrap;rounded=0;fontSize=10;" vertex="1" parent="1">
          <mxGeometry x="730" y="220" width="40" height="20" as="geometry" />
        </mxCell>
        <mxCell id="mPwbwdcTfQN4pYjI0akt-222" value="6.8" style="rounded=0;whiteSpace=wrap;html=1;" vertex="1" parent="1">
          <mxGeometry x="570" y="100" width="40" height="40" as="geometry" />
        </mxCell>
        <mxCell id="mPwbwdcTfQN4pYjI0akt-223" value="-" style="rounded=0;whiteSpace=wrap;html=1;" vertex="1" parent="1">
          <mxGeometry x="730" y="100" width="40" height="40" as="geometry" />
        </mxCell>
        <mxCell id="mPwbwdcTfQN4pYjI0akt-224" value="7.5" style="rounded=0;whiteSpace=wrap;html=1;" vertex="1" parent="1">
          <mxGeometry x="570" y="140" width="40" height="40" as="geometry" />
        </mxCell>
        <mxCell id="mPwbwdcTfQN4pYjI0akt-225" value="8.1" style="rounded=0;whiteSpace=wrap;html=1;" vertex="1" parent="1">
          <mxGeometry x="730" y="140" width="40" height="40" as="geometry" />
        </mxCell>
        <mxCell id="mPwbwdcTfQN4pYjI0akt-226" value="-" style="rounded=0;whiteSpace=wrap;html=1;" vertex="1" parent="1">
          <mxGeometry x="570" y="180" width="40" height="40" as="geometry" />
        </mxCell>
        <mxCell id="mPwbwdcTfQN4pYjI0akt-227" value="-" style="rounded=0;whiteSpace=wrap;html=1;" vertex="1" parent="1">
          <mxGeometry x="730" y="180" width="40" height="40" as="geometry" />
        </mxCell>
        <mxCell id="mPwbwdcTfQN4pYjI0akt-228" value="1.8" style="rounded=0;whiteSpace=wrap;html=1;" vertex="1" parent="1">
          <mxGeometry x="690" y="60" width="40" height="40" as="geometry" />
        </mxCell>
        <mxCell id="mPwbwdcTfQN4pYjI0akt-229" value="-" style="rounded=0;whiteSpace=wrap;html=1;" vertex="1" parent="1">
          <mxGeometry x="690" y="100" width="40" height="40" as="geometry" />
        </mxCell>
        <mxCell id="mPwbwdcTfQN4pYjI0akt-230" value="2.4" style="rounded=0;whiteSpace=wrap;html=1;" vertex="1" parent="1">
          <mxGeometry x="690" y="140" width="40" height="40" as="geometry" />
        </mxCell>
        <mxCell id="mPwbwdcTfQN4pYjI0akt-231" value="1.9" style="rounded=0;whiteSpace=wrap;html=1;" vertex="1" parent="1">
          <mxGeometry x="690" y="180" width="40" height="40" as="geometry" />
        </mxCell>
        <mxCell id="mPwbwdcTfQN4pYjI0akt-232" value="0.9" style="rounded=0;whiteSpace=wrap;html=1;" vertex="1" parent="1">
          <mxGeometry x="650" y="60" width="40" height="40" as="geometry" />
        </mxCell>
        <mxCell id="mPwbwdcTfQN4pYjI0akt-233" value="1.2" style="rounded=0;whiteSpace=wrap;html=1;" vertex="1" parent="1">
          <mxGeometry x="650" y="100" width="40" height="40" as="geometry" />
        </mxCell>
        <mxCell id="mPwbwdcTfQN4pYjI0akt-234" value="-" style="rounded=0;whiteSpace=wrap;html=1;" vertex="1" parent="1">
          <mxGeometry x="650" y="140" width="40" height="40" as="geometry" />
        </mxCell>
        <mxCell id="mPwbwdcTfQN4pYjI0akt-235" value="0.7" style="rounded=0;whiteSpace=wrap;html=1;" vertex="1" parent="1">
          <mxGeometry x="650" y="180" width="40" height="40" as="geometry" />
        </mxCell>
        <mxCell id="mPwbwdcTfQN4pYjI0akt-236" value="0.8" style="rounded=0;whiteSpace=wrap;html=1;" vertex="1" parent="1">
          <mxGeometry x="610" y="60" width="40" height="40" as="geometry" />
        </mxCell>
        <mxCell id="mPwbwdcTfQN4pYjI0akt-237" value="1.3" style="rounded=0;whiteSpace=wrap;html=1;" vertex="1" parent="1">
          <mxGeometry x="610" y="100" width="40" height="40" as="geometry" />
        </mxCell>
        <mxCell id="mPwbwdcTfQN4pYjI0akt-238" value="-" style="rounded=0;whiteSpace=wrap;html=1;" vertex="1" parent="1">
          <mxGeometry x="610" y="140" width="40" height="40" as="geometry" />
        </mxCell>
        <mxCell id="mPwbwdcTfQN4pYjI0akt-239" value="2.1" style="rounded=0;whiteSpace=wrap;html=1;" vertex="1" parent="1">
          <mxGeometry x="610" y="180" width="40" height="40" as="geometry" />
        </mxCell>
        <mxCell id="mPwbwdcTfQN4pYjI0akt-240" value="1.5" style="rounded=0;whiteSpace=wrap;html=1;" vertex="1" parent="1">
          <mxGeometry x="530" y="60" width="40" height="40" as="geometry" />
        </mxCell>
        <mxCell id="mPwbwdcTfQN4pYjI0akt-241" value="3.3" style="rounded=0;whiteSpace=wrap;html=1;" vertex="1" parent="1">
          <mxGeometry x="530" y="100" width="40" height="40" as="geometry" />
        </mxCell>
        <mxCell id="mPwbwdcTfQN4pYjI0akt-242" value="0.8" style="rounded=0;whiteSpace=wrap;html=1;" vertex="1" parent="1">
          <mxGeometry x="530" y="140" width="40" height="40" as="geometry" />
        </mxCell>
        <mxCell id="mPwbwdcTfQN4pYjI0akt-243" value="-" style="rounded=0;whiteSpace=wrap;html=1;" vertex="1" parent="1">
          <mxGeometry x="530" y="180" width="40" height="40" as="geometry" />
        </mxCell>
        <mxCell id="mPwbwdcTfQN4pYjI0akt-244" value="1.1" style="rounded=0;whiteSpace=wrap;html=1;" vertex="1" parent="1">
          <mxGeometry x="490" y="60" width="40" height="40" as="geometry" />
        </mxCell>
        <mxCell id="mPwbwdcTfQN4pYjI0akt-245" value="0.0" style="rounded=0;whiteSpace=wrap;html=1;" vertex="1" parent="1">
          <mxGeometry x="490" y="100" width="40" height="40" as="geometry" />
        </mxCell>
        <mxCell id="mPwbwdcTfQN4pYjI0akt-246" value="0.8" style="rounded=0;whiteSpace=wrap;html=1;" vertex="1" parent="1">
          <mxGeometry x="490" y="140" width="40" height="40" as="geometry" />
        </mxCell>
        <mxCell id="mPwbwdcTfQN4pYjI0akt-247" value="1.2" style="rounded=0;whiteSpace=wrap;html=1;" vertex="1" parent="1">
          <mxGeometry x="490" y="180" width="40" height="40" as="geometry" />
        </mxCell>
        <mxCell id="mPwbwdcTfQN4pYjI0akt-248" value="1.2" style="rounded=0;whiteSpace=wrap;html=1;" vertex="1" parent="1">
          <mxGeometry x="450" y="60" width="40" height="40" as="geometry" />
        </mxCell>
        <mxCell id="mPwbwdcTfQN4pYjI0akt-249" value="-" style="rounded=0;whiteSpace=wrap;html=1;" vertex="1" parent="1">
          <mxGeometry x="450" y="100" width="40" height="40" as="geometry" />
        </mxCell>
        <mxCell id="mPwbwdcTfQN4pYjI0akt-250" value="1.3" style="rounded=0;whiteSpace=wrap;html=1;" vertex="1" parent="1">
          <mxGeometry x="450" y="140" width="40" height="40" as="geometry" />
        </mxCell>
        <mxCell id="mPwbwdcTfQN4pYjI0akt-251" value="1.7" style="rounded=0;whiteSpace=wrap;html=1;" vertex="1" parent="1">
          <mxGeometry x="450" y="180" width="40" height="40" as="geometry" />
        </mxCell>
        <mxCell id="mPwbwdcTfQN4pYjI0akt-252" value="Group 1" style="text;html=1;align=center;verticalAlign=middle;whiteSpace=wrap;rounded=0;fontSize=10;" vertex="1" parent="1">
          <mxGeometry x="410" y="60" width="40" height="40" as="geometry" />
        </mxCell>
        <mxCell id="mPwbwdcTfQN4pYjI0akt-253" value="Group 2" style="text;html=1;align=center;verticalAlign=middle;whiteSpace=wrap;rounded=0;fontSize=10;" vertex="1" parent="1">
          <mxGeometry x="410" y="100" width="40" height="40" as="geometry" />
        </mxCell>
        <mxCell id="mPwbwdcTfQN4pYjI0akt-254" value="Group 3" style="text;html=1;align=center;verticalAlign=middle;whiteSpace=wrap;rounded=0;fontSize=10;" vertex="1" parent="1">
          <mxGeometry x="410" y="140" width="40" height="40" as="geometry" />
        </mxCell>
        <mxCell id="mPwbwdcTfQN4pYjI0akt-255" value="Group 4" style="text;html=1;align=center;verticalAlign=middle;whiteSpace=wrap;rounded=0;fontSize=10;" vertex="1" parent="1">
          <mxGeometry x="410" y="180" width="40" height="40" as="geometry" />
        </mxCell>
        <mxCell id="mPwbwdcTfQN4pYjI0akt-256" value="Episode 1" style="text;html=1;align=center;verticalAlign=middle;whiteSpace=wrap;rounded=0;fontSize=10;" vertex="1" parent="1">
          <mxGeometry x="70" y="80" width="120" height="20" as="geometry" />
        </mxCell>
        <mxCell id="mPwbwdcTfQN4pYjI0akt-257" value="" style="endArrow=none;html=1;rounded=0;" edge="1" parent="1">
          <mxGeometry width="50" height="50" relative="1" as="geometry">
            <mxPoint x="70" y="100" as="sourcePoint" />
            <mxPoint x="190" y="100" as="targetPoint" />
          </mxGeometry>
        </mxCell>
        <mxCell id="mPwbwdcTfQN4pYjI0akt-258" value="" style="endArrow=none;html=1;rounded=0;" edge="1" parent="1">
          <mxGeometry width="50" height="50" relative="1" as="geometry">
            <mxPoint x="190" y="110" as="sourcePoint" />
            <mxPoint x="190" y="100" as="targetPoint" />
          </mxGeometry>
        </mxCell>
        <mxCell id="mPwbwdcTfQN4pYjI0akt-259" value="" style="endArrow=none;html=1;rounded=0;" edge="1" parent="1">
          <mxGeometry width="50" height="50" relative="1" as="geometry">
            <mxPoint x="70" y="110" as="sourcePoint" />
            <mxPoint x="70" y="100" as="targetPoint" />
          </mxGeometry>
        </mxCell>
        <mxCell id="mPwbwdcTfQN4pYjI0akt-260" value="Episode 2" style="text;html=1;align=center;verticalAlign=middle;whiteSpace=wrap;rounded=0;fontSize=10;" vertex="1" parent="1">
          <mxGeometry x="230" y="80" width="120" height="20" as="geometry" />
        </mxCell>
        <mxCell id="mPwbwdcTfQN4pYjI0akt-261" value="" style="endArrow=none;html=1;rounded=0;" edge="1" parent="1">
          <mxGeometry width="50" height="50" relative="1" as="geometry">
            <mxPoint x="230" y="100" as="sourcePoint" />
            <mxPoint x="350" y="100" as="targetPoint" />
          </mxGeometry>
        </mxCell>
        <mxCell id="mPwbwdcTfQN4pYjI0akt-262" value="" style="endArrow=none;html=1;rounded=0;" edge="1" parent="1">
          <mxGeometry width="50" height="50" relative="1" as="geometry">
            <mxPoint x="350" y="110" as="sourcePoint" />
            <mxPoint x="350" y="100" as="targetPoint" />
          </mxGeometry>
        </mxCell>
        <mxCell id="mPwbwdcTfQN4pYjI0akt-263" value="" style="endArrow=none;html=1;rounded=0;" edge="1" parent="1">
          <mxGeometry width="50" height="50" relative="1" as="geometry">
            <mxPoint x="230" y="110" as="sourcePoint" />
            <mxPoint x="230" y="100" as="targetPoint" />
          </mxGeometry>
        </mxCell>
        <mxCell id="mPwbwdcTfQN4pYjI0akt-264" value="Episode 1" style="text;html=1;align=center;verticalAlign=middle;whiteSpace=wrap;rounded=0;fontSize=10;" vertex="1" parent="1">
          <mxGeometry x="470" y="20" width="120" height="20" as="geometry" />
        </mxCell>
        <mxCell id="mPwbwdcTfQN4pYjI0akt-265" value="" style="endArrow=none;html=1;rounded=0;" edge="1" parent="1">
          <mxGeometry width="50" height="50" relative="1" as="geometry">
            <mxPoint x="470" y="40" as="sourcePoint" />
            <mxPoint x="590" y="40" as="targetPoint" />
          </mxGeometry>
        </mxCell>
        <mxCell id="mPwbwdcTfQN4pYjI0akt-266" value="" style="endArrow=none;html=1;rounded=0;" edge="1" parent="1">
          <mxGeometry width="50" height="50" relative="1" as="geometry">
            <mxPoint x="590" y="50" as="sourcePoint" />
            <mxPoint x="590" y="40" as="targetPoint" />
          </mxGeometry>
        </mxCell>
        <mxCell id="mPwbwdcTfQN4pYjI0akt-267" value="" style="endArrow=none;html=1;rounded=0;" edge="1" parent="1">
          <mxGeometry width="50" height="50" relative="1" as="geometry">
            <mxPoint x="470" y="50" as="sourcePoint" />
            <mxPoint x="470" y="40" as="targetPoint" />
          </mxGeometry>
        </mxCell>
        <mxCell id="mPwbwdcTfQN4pYjI0akt-268" value="Episode 2" style="text;html=1;align=center;verticalAlign=middle;whiteSpace=wrap;rounded=0;fontSize=10;" vertex="1" parent="1">
          <mxGeometry x="630" y="20" width="120" height="20" as="geometry" />
        </mxCell>
        <mxCell id="mPwbwdcTfQN4pYjI0akt-269" value="" style="endArrow=none;html=1;rounded=0;" edge="1" parent="1">
          <mxGeometry width="50" height="50" relative="1" as="geometry">
            <mxPoint x="630" y="40" as="sourcePoint" />
            <mxPoint x="750" y="40" as="targetPoint" />
          </mxGeometry>
        </mxCell>
        <mxCell id="mPwbwdcTfQN4pYjI0akt-270" value="" style="endArrow=none;html=1;rounded=0;" edge="1" parent="1">
          <mxGeometry width="50" height="50" relative="1" as="geometry">
            <mxPoint x="750" y="50" as="sourcePoint" />
            <mxPoint x="750" y="40" as="targetPoint" />
          </mxGeometry>
        </mxCell>
        <mxCell id="mPwbwdcTfQN4pYjI0akt-271" value="" style="endArrow=none;html=1;rounded=0;" edge="1" parent="1">
          <mxGeometry width="50" height="50" relative="1" as="geometry">
            <mxPoint x="630" y="50" as="sourcePoint" />
            <mxPoint x="630" y="40" as="targetPoint" />
          </mxGeometry>
        </mxCell>
      </root>
    </mxGraphModel>
  </diagram>
</mxfile>
